# xmcd
#
# Track frame offsets:
#	150
#	17660
#	33122
#	52950
#	71935
#	87090
#	101135
#	115900
#	133617
#	152528
#	167845
#	184628
#	204259
#
# Disc length: 2954 seconds
#
# Revision: 0
# Processed by: cddbd v1.5.2PL0 Copyright (c) Steve Scherf et al.
# Submitted via: audiograbber 1.83.01
#
DISCID=a30b880d
DTITLE=Jordin Sparks - Jordin Sparks
DYEAR=2007
DGENRE=R&B
TTITLE0=Tattoo
TTITLE1=One Step At A Time
TTITLE2=No Air duet with Chris Brown
TTITLE3=Freeze
TTITLE4=Shy Boy
TTITLE5=Now You Tell Me
TTITLE6=Next To You
TTITLE7=Just For The Record
TTITLE8=Permanent Monday
TTITLE9=Young And In Love
TTITLE10=See My Side
TTITLE11=God Loves Ugly
TTITLE12=This Is My Now
EXTD=
EXTT0=
EXTT1=
EXTT2=
EXTT3=
EXTT4=
EXTT5=
EXTT6=
EXTT7=
EXTT8=
EXTT9=
EXTT10=
EXTT11=
EXTT12=
PLAYORDER=
